<svg width="128" height="128" viewBox="0 0 128 128" xmlns="http://www.w3.org/2000/svg">
  <!-- Panda 8-bit style -->
  <!-- Background ears (black) -->
  <rect x="16" y="24" width="16" height="16" fill="#000000"/>
  <rect x="96" y="24" width="16" height="16" fill="#000000"/>
  <rect x="8" y="40" width="16" height="16" fill="#000000"/>
  <rect x="104" y="40" width="16" height="16" fill="#000000"/>
  <rect x="8" y="56" width="16" height="16" fill="#000000"/>
  <rect x="104" y="56" width="16" height="16" fill="#000000"/>
  
  <!-- Head outline (white) -->
  <rect x="32" y="32" width="64" height="64" fill="#FFFFFF"/>
  <rect x="24" y="40" width="80" height="48" fill="#FFFFFF"/>
  <rect x="32" y="24" width="64" height="8" fill="#FFFFFF"/>
  <rect x="32" y="96" width="64" height="8" fill="#FFFFFF"/>
  
  <!-- Eye patches (black) -->
  <rect x="40" y="48" width="16" height="24" fill="#000000"/>
  <rect x="72" y="48" width="16" height="24" fill="#000000"/>
  
  <!-- Eyes (white) -->
  <rect x="44" y="52" width="8" height="8" fill="#FFFFFF"/>
  <rect x="76" y="52" width="8" height="8" fill="#FFFFFF"/>
  
  <!-- Eye pupils (black) -->
  <rect x="46" y="54" width="4" height="4" fill="#000000"/>
  <rect x="78" y="54" width="4" height="4" fill="#000000"/>
  
  <!-- Nose area (white) -->
  <rect x="56" y="64" width="16" height="16" fill="#FFFFFF"/>
  
  <!-- Nose (black) -->
  <rect x="60" y="68" width="8" height="4" fill="#000000"/>
  
  <!-- Mouth -->
  <rect x="56" y="76" width="4" height="4" fill="#000000"/>
  <rect x="68" y="76" width="4" height="4" fill="#000000"/>
  <rect x="60" y="80" width="8" height="4" fill="#000000"/>
</svg> 